<?xml version="1.0" encoding="UTF-8"?>
<svg id="Ebene_1" data-name="Ebene 1" xmlns="http://www.w3.org/2000/svg" viewBox="0 0 1024 1024">
  <defs>
    <style>
      .cls-1 {
        fill: #dde6ed;
      }

      .cls-2 {
        fill: #27374d;
        stroke: #526d82;
        stroke-miterlimit: 10;
        stroke-width: 53.04728px;
      }
    </style>
  </defs>
  <path class="cls-2" d="M990.10603,128.68524l-.003,766.6331c-.0002,52.01529-43.0476,94.18185-96.14905,94.18165l-762.69964-.00287c-53.10145-.0002-96.14851-42.16709-96.14831-94.18238l.003-766.6331c.0002-52.01529,43.0476-94.18185,96.14905-94.18165l762.69964.00287c53.10145.0002,96.14851,42.16709,96.14831,94.18238Z"/>
  <path class="cls-1" d="M908.18349,686.95063l-90.01214,88.17032c-18.31507,17.94031-48.00955,17.9402-66.32448-.00025l-439.63486-430.6457c-6.59217-6.45738-22.21328-12.79516-31.53693-12.79565l-82.83795-.00122c-10.16129-.00015-24.35383,5.75819-31.53898,12.79632l-30.31988,29.69948c-2.60561,2.5523-2.60563,6.7288-.00004,9.28112l371.41566,363.82137c2.60559,2.55232,6.86931,2.55233,9.47493.00004l78.64218-77.03301c2.61644-2.5629,6.85851-2.56289,9.47493.00004l18.94978,18.56231c2.61642,2.56292,2.6164,6.71822-.00004,9.28112l-78.64218,77.03301c-18.31507,17.94031-48.00955,17.9402-66.32448-.00025L107.55335,411.29831c-18.31493-17.94045-18.31482-47.02754.00025-64.96785l30.31988-29.69948c14.1597-13.86997,39.9382-24.32926,59.96185-24.32873l82.8399.00122c20.02457-.00038,45.80253,10.45865,59.96166,24.32827l439.63486,430.6457c2.60559,2.55232,6.86931,2.55233,9.47493.00004l90.01214-88.17032c7.18478-7.03776,13.06327-20.93925,13.0633-30.89219l.00032-81.14468c.00004-9.95301-5.87838-23.85463-13.06315-30.89249l-30.31956-29.69962c-2.60559-2.55232-6.86931-2.55233-9.47493-.00004l-138.33445,135.50386c-2.61644,2.5629-6.85851,2.56289-9.47493-.00004l-18.94978-18.56231c-2.61642-2.56292-2.6164-6.71822.00004-9.28112l138.33445-135.50386c18.31507-17.94031,48.00955-17.9402,66.32448.00025l30.31855,29.69863c13.66064,13.38132,24.83746,39.81292,24.83739,58.73689l-.00032,81.14608c-.00007,18.92313-11.17661,45.35348-24.83675,58.73411Z"/>
</svg>