<?xml version="1.0" encoding="UTF-8"?>
<svg id="Ebene_1" data-name="Ebene 1" xmlns="http://www.w3.org/2000/svg" viewBox="0 0 1024 1024">
  <defs>
    <style>
      .cls-1, .cls-2, .cls-3 {
        fill: #526d82;
      }

      .cls-1, .cls-4, .cls-5, .cls-6 {
        font-family: FiraSans-UltraItalic, 'Fira Sans';
        font-size: 56px;
        font-style: italic;
      }

      .cls-7, .cls-6, .cls-8 {
        fill: #27374d;
      }

      .cls-9 {
        letter-spacing: -.015em;
      }

      .cls-4, .cls-10, .cls-11 {
        fill: #9db2bf;
      }

      .cls-5, .cls-12, .cls-13 {
        fill: #dde6ed;
      }

      .cls-14 {
        letter-spacing: -.00499em;
      }

      .cls-15 {
        letter-spacing: .00201em;
      }

      .cls-16 {
        letter-spacing: -.03999em;
      }

      .cls-12, .cls-11, .cls-8, .cls-3 {
        stroke: #27374d;
        stroke-miterlimit: 10;
        stroke-width: 7px;
      }

      .cls-17 {
        letter-spacing: -.01599em;
      }

      .cls-18 {
        letter-spacing: -.00399em;
      }

      .cls-19 {
        letter-spacing: -.01001em;
      }

      .cls-20 {
        letter-spacing: -.00999em;
      }
    </style>
  </defs>
  <path class="cls-8" d="M130,78h786c22.0766,0,40,17.9234,40,40v170H90V118c0-22.0766,17.9234-40,40-40Z"/>
  <rect class="cls-3" x="90" y="288" width="866" height="210"/>
  <rect class="cls-11" x="90" y="498" width="866" height="210"/>
  <path class="cls-12" d="M90,708h866v170c0,22.0766-17.9234,40-40,40H90v-210h0Z"/>
  <text class="cls-5" transform="translate(98.66634 279.3406)"><tspan class="cls-15" x="0" y="0">#</tspan><tspan class="cls-19" x="32.5918" y="0">2</tspan><tspan class="cls-18" x="61.43066" y="0">7</tspan><tspan class="cls-14" x="87.86328" y="0">3</tspan><tspan class="cls-16" x="117.03906" y="0">7</tspan><tspan x="141.45605" y="0">4D</tspan></text>
  <text class="cls-4" transform="translate(98.66634 489.75467)"><tspan x="0" y="0">#</tspan><tspan class="cls-17" x="32.47949" y="0">5</tspan><tspan x="62.66406" y="0">26D</tspan><tspan class="cls-20" x="160.77539" y="0">8</tspan><tspan x="193.5918" y="0">2</tspan></text>
  <text class="cls-1" transform="translate(98.66634 700.16873)"><tspan x="0" y="0">#9D</tspan><tspan class="cls-9" x="101.13477" y="0">B</tspan><tspan x="134.56738" y="0">2BF</tspan></text>
  <text class="cls-6" transform="translate(98.66634 910.58276)"><tspan x="0" y="0">#DD</tspan><tspan class="cls-9" x="104.83105" y="0">E</tspan><tspan x="132.49414" y="0">6ED</tspan></text>
  <path class="cls-13" d="M908.64216,215.94934l-19.829,19.82885c-4.03467,4.03464-10.57614,4.03462-14.61079-.00006l-96.84827-96.84902c-1.45221-1.45222-4.89342-2.87754-6.94735-2.87765l-18.24858-.00027c-2.23846-.00003-5.36497,1.29498-6.9478,2.8778l-6.67924,6.67919c-.574.57399-.574,1.51326,0,2.08726l81.82009,81.82072c.57399.574,1.51326.574,2.08726,0l17.32429-17.32415c.57638-.57638,1.51088-.57637,2.08726,0l4.17449,4.17453c.57638.57638.57637,1.51088,0,2.08726l-17.32429,17.32415c-4.03467,4.03464-10.57614,4.03462-14.61079-.00006l-81.82009-81.82072c-4.03464-4.03467-4.03462-10.57614.00006-14.61079l6.67924-6.67919c3.11928-3.11925,8.79809-5.47147,13.20915-5.47135l18.24901.00027c4.41126-.00008,10.08995,2.35207,13.2091,5.47125l96.84827,96.84902c.57399.574,1.51326.574,2.08726,0l19.829-19.82885c1.58275-1.58274,2.87774-4.70908,2.87775-6.94742l.00007-18.24883c0-2.23836-1.29496-5.36473-2.87771-6.94749l-6.67917-6.67922c-.57399-.574-1.51326-.574-2.08726,0l-30.47404,30.47381c-.57638.57638-1.51088.57637-2.08726,0l-4.17449-4.17453c-.57638-.57638-.57637-1.51088,0-2.08726l30.47404-30.47381c4.03467-4.03464,10.57614-4.03462,14.61079.00006l6.67895,6.679c3.00934,3.00936,5.47151,8.95363,5.47149,13.20949l-.00007,18.24915c-.00002,4.25567-2.46212,10.19966-5.47135,13.20886Z"/>
  <path class="cls-7" d="M908.64216,847.94934l-19.829,19.82885c-4.03467,4.03464-10.57614,4.03462-14.61079-.00006l-96.84827-96.84902c-1.45221-1.45222-4.89342-2.87754-6.94735-2.87765l-18.24858-.00027c-2.23846-.00003-5.36497,1.29498-6.9478,2.8778l-6.67924,6.67919c-.574.57399-.574,1.51326,0,2.08726l81.82009,81.82072c.57399.574,1.51326.574,2.08726,0l17.32429-17.32415c.57638-.57638,1.51088-.57637,2.08726,0l4.17449,4.17453c.57638.57638.57637,1.51088,0,2.08726l-17.32429,17.32415c-4.03467,4.03464-10.57614,4.03462-14.61079-.00006l-81.82009-81.82072c-4.03464-4.03467-4.03462-10.57614.00006-14.61079l6.67924-6.67919c3.11928-3.11925,8.79809-5.47147,13.20915-5.47135l18.24901.00027c4.41126-.00008,10.08995,2.35207,13.2091,5.47125l96.84827,96.84902c.57399.574,1.51326.574,2.08726,0l19.829-19.82885c1.58275-1.58274,2.87774-4.70908,2.87775-6.94742l.00007-18.24883c0-2.23836-1.29496-5.36473-2.87771-6.94749l-6.67917-6.67922c-.57399-.574-1.51326-.574-2.08726,0l-30.47404,30.47381c-.57638.57638-1.51088.57637-2.08726,0l-4.17449-4.17453c-.57638-.57638-.57637-1.51088,0-2.08726l30.47404-30.47381c4.03467-4.03464,10.57614-4.03462,14.61079.00006l6.67895,6.679c3.00934,3.00936,5.47151,8.95363,5.47149,13.20949l-.00007,18.24915c-.00002,4.25567-2.46212,10.19966-5.47135,13.20886Z"/>
  <path class="cls-2" d="M908.64216,635.94934l-19.829,19.82885c-4.03467,4.03464-10.57614,4.03462-14.61079-.00006l-96.84827-96.84902c-1.45221-1.45222-4.89342-2.87754-6.94735-2.87765l-18.24858-.00027c-2.23846-.00003-5.36497,1.29498-6.9478,2.8778l-6.67924,6.67919c-.574.57399-.574,1.51326,0,2.08726l81.82009,81.82072c.57399.574,1.51326.574,2.08726,0l17.32429-17.32415c.57638-.57638,1.51088-.57637,2.08726,0l4.17449,4.17453c.57638.57638.57637,1.51088,0,2.08726l-17.32429,17.32415c-4.03467,4.03464-10.57614,4.03462-14.61079-.00006l-81.82009-81.82072c-4.03464-4.03467-4.03462-10.57614.00006-14.61079l6.67924-6.67919c3.11928-3.11925,8.79809-5.47147,13.20915-5.47135l18.24901.00027c4.41126-.00008,10.08995,2.35207,13.2091,5.47125l96.84827,96.84902c.57399.574,1.51326.574,2.08726,0l19.829-19.82885c1.58275-1.58274,2.87774-4.70908,2.87775-6.94742l.00007-18.24883c0-2.23836-1.29496-5.36473-2.87771-6.94749l-6.67917-6.67922c-.57399-.574-1.51326-.574-2.08726,0l-30.47404,30.47381c-.57638.57638-1.51088.57637-2.08726,0l-4.17449-4.17453c-.57638-.57638-.57637-1.51088,0-2.08726l30.47404-30.47381c4.03467-4.03464,10.57614-4.03462,14.61079.00006l6.67895,6.679c3.00934,3.00936,5.47151,8.95363,5.47149,13.20949l-.00007,18.24915c-.00002,4.25567-2.46212,10.19966-5.47135,13.20886Z"/>
  <path class="cls-10" d="M908.64216,425.94934l-19.829,19.82885c-4.03467,4.03464-10.57614,4.03462-14.61079-.00006l-96.84827-96.84902c-1.45221-1.45222-4.89342-2.87754-6.94735-2.87765l-18.24858-.00027c-2.23846-.00003-5.36497,1.29498-6.9478,2.8778l-6.67924,6.67919c-.574.57399-.574,1.51326,0,2.08726l81.82009,81.82072c.57399.574,1.51326.574,2.08726,0l17.32429-17.32415c.57638-.57638,1.51088-.57637,2.08726,0l4.17449,4.17453c.57638.57638.57637,1.51088,0,2.08726l-17.32429,17.32415c-4.03467,4.03464-10.57614,4.03462-14.61079-.00006l-81.82009-81.82072c-4.03464-4.03467-4.03462-10.57614.00006-14.61079l6.67924-6.67919c3.11928-3.11925,8.79809-5.47147,13.20915-5.47135l18.24901.00027c4.41126-.00008,10.08995,2.35207,13.2091,5.47125l96.84827,96.84902c.57399.574,1.51326.574,2.08726,0l19.829-19.82885c1.58275-1.58274,2.87774-4.70908,2.87775-6.94742l.00007-18.24883c0-2.23836-1.29496-5.36473-2.87771-6.94749l-6.67917-6.67922c-.57399-.574-1.51326-.574-2.08726,0l-30.47404,30.47381c-.57638.57638-1.51088.57637-2.08726,0l-4.17449-4.17453c-.57638-.57638-.57637-1.51088,0-2.08726l30.47404-30.47381c4.03467-4.03464,10.57614-4.03462,14.61079.00006l6.67895,6.679c3.00934,3.00936,5.47151,8.95363,5.47149,13.20949l-.00007,18.24915c-.00002,4.25567-2.46212,10.19966-5.47135,13.20886Z"/>
</svg>