<?xml version="1.0" encoding="UTF-8"?>
<svg id="Ebene_1" data-name="Ebene 1" xmlns="http://www.w3.org/2000/svg" viewBox="0 0 1024 1024">
  <defs>
    <style>
      .cls-1 {
        fill: #dde6ed;
      }

      .cls-2 {
        fill: #27374d;
        stroke: #526d82;
        stroke-miterlimit: 10;
        stroke-width: 39.54939px;
      }
    </style>
  </defs>
  <path class="cls-2" d="M868,226.21978l-.00224,571.56311c-.00015,38.77999-32.09413,70.21726-71.6839,70.21711l-568.63052-.00214c-39.58977-.00015-71.6835-31.43766-71.68335-70.21765l.00224-571.56311c.00015-38.77999,32.09413-70.21726,71.6839-70.21711l568.63052.00214c39.58977.00015,71.6835,31.43766,71.68335,70.21765Z"/>
  <path class="cls-1" d="M806.92267,642.4344l-67.10853,65.73536c-13.6548,13.37539-35.79351,13.37531-49.4482-.00019l-327.76966-321.06779c-4.91479-4.8143-16.56111-9.53943-23.51235-9.53979l-61.75981-.00091c-7.57575-.00011-18.15699,4.29302-23.51388,9.54029l-22.60498,22.14244c-1.94262,1.90287-1.94263,5.01666-.00003,6.91954l276.90885,271.24692c1.9426,1.90288,5.12141,1.90289,7.06403.00003l58.63166-57.43194c1.95069-1.91077,5.11336-1.91076,7.06403.00003l14.128,13.83913c1.95067,1.91078,1.95066,5.00877-.00003,6.91954l-58.63166,57.43194c-13.6548,13.37539-35.79351,13.37531-49.4482-.00019L210.01308,436.92188c-13.65469-13.37549-13.65461-35.06137.00019-48.43676l22.60498-22.14244c10.55676-10.34075,29.77592-18.13867,44.70454-18.13828l61.76127.00091c14.92931-.00028,34.14806,7.79745,44.7044,18.13794l327.76966,321.06779c1.9426,1.90288,5.12141,1.90289,7.06403.00003l67.10853-65.73536c5.35661-5.247,9.73931-15.61125,9.73934-23.03166l.00024-60.49739c.00003-7.42046-4.38262-17.78481-9.73923-23.03189l-22.60474-22.14254c-1.9426-1.90288-5.12141-1.90289-7.06403-.00003l-103.13521,101.02487c-1.95069,1.91077-5.11336,1.91076-7.06403-.00003l-14.128-13.83913c-1.95067-1.91078-1.95066-5.00877.00003-6.91954l103.13521-101.02487c13.6548-13.37539,35.79351-13.37531,49.4482.00019l22.60398,22.1418c10.18468,9.97644,18.51756,29.68251,18.51751,43.79128l-.00024,60.49844c-.00006,14.10814-8.33272,33.81328-18.51703,43.7892Z"/>
</svg>