<?xml version="1.0" encoding="UTF-8"?>
<svg id="Ebene_1" data-name="Ebene 1" xmlns="http://www.w3.org/2000/svg" viewBox="0 0 2108 1024">
  <defs>
    <style>
      .cls-1 {
        fill: #dde6ed;
      }
    </style>
  </defs>
  <path class="cls-1" d="M466.98096,815h-95c-19.32997,0-35-15.67003-35-35v-464c0-6.95752-4.8291-18.61523-9.74902-23.53564l-43.71381-43.71479c-5.36214-5.36226-15.95387-9.74957-23.53716-9.74957h-32c-2.75,0-5,2.25-5,5v392c0,2.75,2.25,5,5,5h83c2.76142,0,5,2.23858,5,5v20c0,2.76142-2.23858,5-5,5h-83c-19.32997,0-35-15.67003-35-35V244c0-19.32997,15.67003-35,35-35h32c14.94434,0,34.18262,7.96875,44.74902,18.53564l43.71484,43.71582c10.56738,10.56689,18.53613,29.80469,18.53613,44.74854v464c0,2.75,2.25,5,5,5h95c7.58291,0,18.17414-4.38703,23.53607-9.74896l43.71491-43.71491c5.36196-5.36196,9.74902-15.95326,9.74902-23.53622v-31.99991c0-2.75-2.25-5-5-5h-146c-2.76142,0-5-2.23858-5-5v-20c0-2.76142,2.23858-5,5-5h146c19.32997,0,35,15.67003,35,35v31.99884c0,14.41773-8.34126,34.55531-18.53613,44.75018l-43.71566,43.71566c-10.19442,10.19442-30.33111,18.53531-44.7482,18.53531Z"/>
  <path class="cls-1" d="M464.99268,292.91895c8.19336-8.00977,19.74902-12.01855,34.6582-12.01855,15.27637,0,26.91895,4.00879,34.9375,12.01855,8.00977,8.01758,12.01855,19.66113,12.01855,34.9375,0,15.28516-4.00879,26.92773-12.01855,34.9375-8.01855,8.01758-19.66113,12.01855-34.9375,12.01855-14.90918,0-26.46484-4.09668-34.6582-12.29785-8.20117-8.19336-12.29785-19.74902-12.29785-34.6582,0-15.27637,4.09668-26.91992,12.29785-34.9375Z"/>
  <rect class="cls-1" x="457.72607" y="413.94238" width="83.84961" height="203.05762"/>
  <path class="cls-1" d="M637.44092,703.22461c-24.03613-14.7168-40.71875-34.9375-50.03027-60.65137l60.37207-31.30371c8.19336,15.65137,18.81445,27.8623,31.86328,36.61426,13.04004,8.76074,27.57422,13.13672,43.60156,13.13672,12.29785,0,21.80176-2.41992,28.50977-7.26758,6.70801-4.83887,10.06152-11.54688,10.06152-20.12402,0-6.70801-2.61133-12.48145-7.82617-17.3291-5.22266-4.83887-13.04883-8.19238-23.47754-10.06152l-51.9873-10.0625c-25.34668-5.95605-45.19141-17.23242-59.5332-33.81934-14.35059-16.57715-21.52148-36.23828-21.52148-58.97461,0-19.00586,4.93457-35.77539,14.81348-50.30957,9.86914-14.53418,23.84473-25.80176,41.9248-33.81934,18.07129-8.00977,38.85059-12.01855,62.32812-12.01855,28.31738,0,53.28906,6.62012,74.90625,19.84473,21.60938,13.23242,37.45312,31.77539,47.51465,55.62012l-60.93066,31.30371c-4.84766-11.92188-13.04883-21.52148-24.5957-28.78809-11.55566-7.26758-24.41309-10.90039-38.57129-10.90039-11.55566,0-20.49902,2.23535-26.83203,6.70801-6.34082,4.47168-9.50293,10.62109-9.50293,18.44629,0,6.3418,2.69922,11.83594,8.10547,16.49121,5.39746,4.66406,14.0625,8.48047,25.99316,11.45898l48.63379,10.0625c26.08008,7.08301,46.2041,18.54297,60.37207,34.37793,14.1582,15.84473,21.24121,34.9375,21.24121,57.29785,0,19.00586-5.03027,35.77637-15.09277,50.30957-10.06152,14.53418-24.22949,25.81055-42.48438,33.82031-18.2627,8.00879-39.50488,12.01855-63.72559,12.01855-32.05469,0-60.09277-7.35449-84.12988-22.08105Z"/>
  <path class="cls-1" d="M952.15771,692.60352c-20.31543-19.93164-30.46484-47.79395-30.46484-83.57031v-122.4209h-51.42871v-72.66992h2.7959c15.65137,0,27.66992-3.91309,36.05469-11.73926,8.38574-7.82617,12.57812-19.56445,12.57812-35.2168v-22.36035h83.84961v69.31641h71.55176v72.66992h-71.55176v116.83105c0,15.65234,4.28027,27.30371,12.85742,34.9375,8.56836,7.64258,21.6084,11.45898,39.12988,11.45898,5.21387,0,11.73926-.55859,19.56445-1.67676v71.55176c-12.29785,1.86035-25.34668,2.79492-39.12988,2.79492-36.89355,0-65.49902-9.96582-85.80664-29.90625Z"/>
  <path class="cls-1" d="M1133.54736,292.91895c8.19336-8.00977,19.74902-12.01855,34.6582-12.01855,15.27637,0,26.91895,4.00879,34.9375,12.01855,8.00977,8.01758,12.01855,19.66113,12.01855,34.9375,0,15.28516-4.00879,26.92773-12.01855,34.9375-8.01855,8.01758-19.66113,12.01855-34.9375,12.01855-14.90918,0-26.46484-4.09668-34.6582-12.29785-8.20117-8.19336-12.29785-19.74902-12.29785-34.6582,0-15.27637,4.09668-26.91992,12.29785-34.9375ZM1126.28076,413.94238h83.84961v305.21387h-83.84961v-305.21387Z"/>
  <path class="cls-1" d="M1340.65381,705.18164c-25.1543-13.7832-44.99902-32.78906-59.5332-57.01855-14.53418-24.2207-21.80078-51.42773-21.80078-81.61426s7.2666-57.38477,21.80078-81.61328c14.53418-24.2207,34.37891-43.22656,59.5332-57.01855,25.15527-13.78223,52.63379-20.68262,82.45312-20.68262,29.81055,0,57.20117,6.90039,82.17285,20.68262,24.96289,13.79199,44.71973,32.79785,59.25391,57.01855,14.53418,24.22852,21.80078,51.42773,21.80078,81.61328s-7.2666,57.39355-21.80078,81.61426c-14.53418,24.22949-34.29102,43.23535-59.25391,57.01855-24.97168,13.79102-52.3623,20.68262-82.17285,20.68262-29.81934,0-57.29785-6.8916-82.45312-20.68262ZM1367.48584,626.9209c14.3418,15.65234,32.88477,23.47852,55.62109,23.47852,22.72656,0,41.17383-7.82617,55.34082-23.47852,14.1582-15.65137,21.24219-35.77539,21.24219-60.37207s-7.17969-44.71973-21.52148-60.37109c-14.35059-15.65234-32.70215-23.47852-55.06152-23.47852-22.73633,0-41.2793,7.82617-55.62109,23.47852-14.35059,15.65137-21.52148,35.77539-21.52148,60.37109s7.1709,44.7207,21.52148,60.37207Z"/>
  <path class="cls-1" d="M1635.51904,413.94238h78.25977v36.89355c7.82617-14.5332,19.09375-25.43457,33.81934-32.70117,14.71777-7.2666,31.9502-10.90039,51.70801-10.90039,22.72656,0,42.85059,4.84766,60.37207,14.53418,17.51172,9.69531,31.11133,23.29395,40.80664,40.80664,9.68652,17.52148,14.53418,37.64551,14.53418,60.37207v196.20898h-83.85059v-178.32129c0-17.51172-5.12695-31.58301-15.37207-42.2041-10.25391-10.62109-23.75781-15.93164-40.52734-15.93164-16.77051,0-30.28223,5.31055-40.52734,15.93164-10.25488,10.62109-15.37305,24.69238-15.37305,42.2041v178.32129h-83.84961v-305.21387Z"/>
</svg>