<?xml version="1.0" encoding="UTF-8"?>
<svg id="Ebene_1" data-name="Ebene 1" xmlns="http://www.w3.org/2000/svg" viewBox="0 0 1024 1024">
  <defs>
    <style>
      .cls-1 {
        fill: #dde6ed;
      }

      .cls-2 {
        fill: #27374d;
        stroke: #526d82;
        stroke-miterlimit: 10;
        stroke-width: 40px;
      }
    </style>
  </defs>
  <rect class="cls-2" x="148.2051" y="155.64636" width="727.5898" height="712.70728" rx="71.75506" ry="71.75506" transform="translate(-212.07734 512) rotate(-45)"/>
  <path class="cls-1" d="M626.5,815h-95c-19.32997,0-35-15.67003-35-35v-464c0-6.95752-4.8291-18.61523-9.74902-23.53564l-43.71381-43.71479c-5.36214-5.36226-15.95387-9.74957-23.53716-9.74957h-32c-2.75,0-5,2.25-5,5v392c0,2.75,2.25,5,5,5h83c2.76142,0,5,2.23858,5,5v20c0,2.76142-2.23858,5-5,5h-83c-19.32997,0-35-15.67003-35-35V244c0-19.32997,15.67003-35,35-35h32c14.94434,0,34.18262,7.96875,44.74902,18.53564l43.71484,43.71582c10.56738,10.56689,18.53613,29.80469,18.53613,44.74854v464c0,2.75,2.25,5,5,5h95c7.58291,0,18.17414-4.38703,23.53607-9.74896l43.71491-43.71491c5.36196-5.36196,9.74902-15.95326,9.74902-23.53622v-31.99991c0-2.75-2.25-5-5-5h-146c-2.76142,0-5-2.23858-5-5v-20c0-2.76142,2.23858-5,5-5h146c19.32997,0,35,15.67003,35,35v31.99884c0,14.41773-8.34126,34.55531-18.53613,44.75018l-43.71566,43.71566c-10.19442,10.19442-30.33111,18.53531-44.7482,18.53531Z"/>
</svg>